<svg width="70" height="70" viewBox="0 0 70 70" fill="none" xmlns="http://www.w3.org/2000/svg">
<rect width="70" height="70" rx="10" fill="#EEF4FF"/>
<rect x="19" y="15" width="32" height="46" fill="white"/>
<rect x="18" y="10" width="33" height="4" fill="white"/>
<path d="M23.8536 27.8309H28.5985C29.0174 27.8309 29.3561 27.4903 29.3561 27.0705V20.907C29.3561 20.4872 29.0174 20.1466 28.5985 20.1466H23.8536C23.4347 20.1466 23.0959 20.4872 23.0959 20.907V27.0705C23.0959 27.4903 23.4347 27.8309 23.8536 27.8309ZM24.6113 21.6673H27.8408V26.3102H24.6113V21.6673Z" fill="#3066BE" stroke="#3066BE" stroke-width="0.25"/>
<path d="M32.1308 27.8309H36.8757C37.2946 27.8309 37.6334 27.4903 37.6334 27.0705V20.907C37.6334 20.4872 37.2946 20.1466 36.8757 20.1466H32.1308C31.7119 20.1466 31.3732 20.4872 31.3732 20.907V27.0705C31.3732 27.4903 31.7119 27.8309 32.1308 27.8309ZM32.8885 21.6673H36.1181V26.3102H32.8885V21.6673Z" fill="#3066BE" stroke="#3066BE" stroke-width="0.25"/>
<path d="M40.4082 27.8309H45.1531C45.5719 27.8309 45.9107 27.4903 45.9107 27.0705V20.907C45.9107 20.4872 45.5719 20.1466 45.1531 20.1466H40.4082C39.9893 20.1466 39.6505 20.4872 39.6505 20.907V27.0705C39.6505 27.4903 39.9893 27.8309 40.4082 27.8309ZM41.1658 21.6673H44.3954V26.3102H41.1658V21.6673Z" fill="#3066BE" stroke="#3066BE" stroke-width="0.25"/>
<path d="M23.8536 38.345H28.5985C29.0174 38.345 29.3561 38.0044 29.3561 37.5847V31.4205C29.3561 31.0007 29.0174 30.6602 28.5985 30.6602H23.8536C23.4347 30.6602 23.0959 31.0007 23.0959 31.4205V37.5847C23.0959 38.0044 23.4347 38.345 23.8536 38.345ZM24.6113 32.1808H27.8408V36.8244H24.6113V32.1808Z" fill="#3066BE" stroke="#3066BE" stroke-width="0.25"/>
<path d="M32.1308 38.345H36.8757C37.2946 38.345 37.6334 38.0044 37.6334 37.5847V31.4205C37.6334 31.0007 37.2946 30.6602 36.8757 30.6602H32.1308C31.7119 30.6602 31.3732 31.0007 31.3732 31.4205V37.5847C31.3732 38.0044 31.7119 38.345 32.1308 38.345ZM32.8885 32.1808H36.1181V36.8244H32.8885V32.1808Z" fill="#3066BE" stroke="#3066BE" stroke-width="0.25"/>
<path d="M40.4082 38.345H45.1531C45.5719 38.345 45.9107 38.0044 45.9107 37.5847V31.4205C45.9107 31.0007 45.5719 30.6602 45.1531 30.6602H40.4082C39.9893 30.6602 39.6505 31.0007 39.6505 31.4205V37.5847C39.6505 38.0044 39.9893 38.345 40.4082 38.345ZM41.1658 32.1808H44.3954V36.8244H41.1658V32.1808Z" fill="#3066BE" stroke="#3066BE" stroke-width="0.25"/>
<path d="M51.3739 9.875H17.6327C17.2138 9.875 16.875 10.2156 16.875 10.6353V14.2358C16.875 14.6556 17.2138 14.9962 17.6327 14.9962H18.0995V60.1922C18.0995 60.6119 18.4383 60.9525 18.8572 60.9525H50.1493C50.5682 60.9525 50.907 60.6119 50.907 60.1922V14.9962H51.3739C51.7927 14.9962 52.1315 14.6556 52.1315 14.2358V10.6353C52.1315 10.2156 51.7927 9.875 51.3739 9.875ZM18.3903 11.3957H50.6162V13.4755H18.3903V11.3957ZM38.2004 59.4318H30.8061V45.5454H38.2004V59.4318ZM49.3917 59.4318H39.7157V44.7851C39.7157 44.3653 39.377 44.0247 38.9581 44.0247H30.0484C29.6296 44.0247 29.2908 44.3653 29.2908 44.7851V59.4318H19.6148V14.9962H49.3917V59.4318Z" fill="#3066BE" stroke="#3066BE" stroke-width="0.25"/>
</svg>
