<svg width="70" height="70" viewBox="0 0 70 70" fill="none" xmlns="http://www.w3.org/2000/svg">
<rect width="70" height="70" rx="10" fill="#EEF4FF"/>
<path d="M35 41.2857V51L50.8276 35.5714L52 35L36.1724 19L35 23V29.8571H28.5517L22.6897 32.7143L19.1724 37.8571L18 43V45.2857L21.5172 43L26.7931 40.7143L35 41.2857Z" fill="white"/>
<path d="M33.9026 17.9493V28.2203H33.1053C24.1283 28.2203 16.85 35.4986 16.85 44.4756V46.3703C16.85 47.348 18.032 47.8376 18.7233 47.1463L19.9682 45.9014C22.6045 43.2651 26.1812 41.7835 29.9088 41.7835H33.9026V52.0545C33.9026 53.0322 35.0847 53.5218 35.776 52.8305L52.8286 35.7779C53.2571 35.3493 53.2571 34.6545 52.8286 34.2259L35.776 17.1733C35.0847 16.482 33.9026 16.9716 33.9026 17.9493ZM19.0638 43.7365C19.4482 36.3152 25.5883 30.4151 33.1053 30.4151H35C35.6061 30.4151 36.0974 29.9237 36.0974 29.3177V20.5985L50.5007 35.0019L36.0974 49.4052V40.6861C36.0974 40.0801 35.6061 39.5887 35 39.5887H29.9088C25.8971 39.5887 22.0368 41.0729 19.0638 43.7365Z" fill="#3066BE" stroke="#3066BE" stroke-width="0.3"/>
</svg>
