<svg width="70" height="70" viewBox="0 0 70 70" fill="none" xmlns="http://www.w3.org/2000/svg">
<rect width="70" height="70" rx="10" fill="#EEF4FF"/>
<path d="M18.5 52.5H51L53 50.5L49.5 40L46.5 38L42.5 39.5L38.5 41.5L33.5 42L27.5 40L23.5 38L20.5 40L17.5 47.5L18.5 52.5Z" fill="white" stroke="white"/>
<ellipse cx="35.5" cy="27" rx="8.5" ry="8" fill="white"/>
<path d="M35.1565 37.1853C40.7225 37.1853 45.2491 32.6573 45.2491 27.0926C45.2491 21.528 40.7225 17 35.1565 17C29.5904 17 25.0638 21.528 25.0638 27.0926C25.0638 32.6573 29.5904 37.1853 35.1565 37.1853ZM35.1565 19.8055C39.1739 19.8055 42.4437 23.0752 42.4437 27.0926C42.4437 31.1115 39.1739 34.3798 35.1565 34.3798C31.1391 34.3798 27.8693 31.11 27.8693 27.0926C27.8693 23.0752 31.1391 19.8055 35.1565 19.8055Z" fill="#3066BE"/>
<path d="M54.2896 49.4956C53.88 45.8317 52.6428 42.3277 50.7112 39.3609C49.9257 38.1531 48.7222 37.3438 47.3208 37.0843C45.9181 36.8261 44.4929 37.1502 43.3188 38.0002C40.9258 39.7354 38.1035 40.6528 35.1564 40.6528C32.2233 40.6528 29.4136 39.7452 27.0276 38.0255C25.8521 37.1782 24.3736 36.843 22.9681 37.1067C21.5723 37.3676 20.373 38.1714 19.5945 39.3693C19.1554 40.0454 18.7458 40.7594 18.3783 41.4902C17.1327 43.9646 16.3416 46.6579 16.0246 49.497C15.8983 50.6206 16.263 51.7526 17.0247 52.6054C17.8032 53.4737 18.917 53.9731 20.0798 53.9731C20.0812 53.9731 20.0826 53.9731 20.084 53.9731L50.2231 53.9717C51.3916 53.9717 52.5081 53.4723 53.288 52.6012C54.0497 51.7498 54.4144 50.6192 54.2896 49.4956ZM51.198 50.73C50.9497 51.0063 50.5948 51.1662 50.2245 51.1662H20.0826C20.0826 51.1662 20.0826 51.1662 20.0812 51.1662C19.7137 51.1662 19.3616 51.0091 19.1162 50.7328C18.9801 50.5827 18.7613 50.2615 18.8132 49.807C19.0923 47.3003 19.7881 44.9255 20.885 42.7499C21.2062 42.113 21.5625 41.4902 21.9469 40.8983C22.3046 40.3498 22.8502 39.9837 23.4857 39.8645C23.633 39.8364 23.783 39.8238 23.9317 39.8238C24.4451 39.8238 24.9515 39.9879 25.3878 40.3035C28.2535 42.3683 31.6313 43.4597 35.1564 43.4597C38.6997 43.4597 42.0915 42.3585 44.9657 40.2741C45.5127 39.8771 46.165 39.727 46.8088 39.8448C47.4457 39.9641 47.9969 40.3358 48.3589 40.8927C50.0519 43.4933 51.1377 46.5765 51.4982 49.807C51.5515 50.2601 51.3326 50.5785 51.198 50.73Z" fill="#3066BE"/>
</svg>
