<svg width="70" height="70" viewBox="0 0 70 70" fill="none" xmlns="http://www.w3.org/2000/svg">
<rect width="70" height="70" rx="10" fill="#F1F1F1"/>
<rect x="20" y="21" width="31" height="31" rx="15.5" fill="white"/>
<path d="M20.8819 36.0819C20.8819 28.0537 27.3466 21.5209 35.2912 21.5209H39.1467V23.0164C39.1467 23.4099 39.3415 23.7641 39.6919 23.9609C39.8477 24.0396 40.0424 24.0789 40.1982 24.0789C40.3929 24.0789 40.5877 24.0396 40.7824 23.9215L45.3778 20.9699C45.6894 20.7732 45.8841 20.419 45.8841 20.0648C45.8841 19.7106 45.6894 19.3564 45.3778 19.1596L40.7824 16.1687C40.4708 15.972 40.0424 15.9326 39.6919 16.1294C39.3415 16.3261 39.1467 16.6803 39.1467 17.0739V18.5693H35.2912C25.7499 18.6087 18 26.4402 18 36.0819C18 36.869 18.6621 37.5381 19.4409 37.5381C20.2198 37.5381 20.8819 36.869 20.8819 36.0819Z" fill="#3066BE"/>
<path d="M52.1932 32.5401C52.0374 31.8317 51.4533 31.3595 50.7912 31.3595C50.7133 31.3595 50.5965 31.3595 50.5186 31.3989C49.7397 31.5563 49.2335 32.3434 49.3892 33.1304C49.5061 33.7601 49.584 34.3898 49.6619 35.0194C49.7008 35.7672 50.3628 36.3575 51.1028 36.3575H51.2196C51.9985 36.2788 52.6216 35.6098 52.5437 34.7833C52.4658 34.0356 52.349 33.2879 52.1932 32.5401Z" fill="#3066BE"/>
<path d="M47.5197 28.4471C47.9091 29.1162 48.8438 29.3523 49.5058 28.9194C49.8174 28.7226 50.051 28.4078 50.1679 28.0142C50.2458 27.6207 50.2068 27.2272 49.9732 26.9123C49.5837 26.2827 49.1553 25.653 48.6491 25.0627C48.4154 24.7478 48.0649 24.5904 47.6754 24.5117C47.6365 24.5117 47.5586 24.5117 47.5197 24.5117C47.2081 24.5117 46.8576 24.6298 46.6239 24.8266C46.3124 25.0627 46.1566 25.4169 46.0787 25.8104C46.0398 26.2039 46.1566 26.5975 46.3903 26.873C46.8187 27.3846 47.2081 27.8962 47.5197 28.4471Z" fill="#3066BE"/>
<path d="M50.9079 38.9941C50.7911 38.9548 50.6353 38.9548 50.5185 38.9548C49.8954 38.9548 49.3112 39.3877 49.1165 40.0173C48.9607 40.6076 48.727 41.2373 48.4934 41.7883C48.1818 42.536 48.5323 43.4018 49.2723 43.7166C50.0122 44.0315 50.869 43.6773 51.1805 42.9295C51.4921 42.2212 51.7257 41.5128 51.9205 40.7651C52.0373 40.3715 51.9594 39.978 51.8036 39.6631C51.6089 39.3483 51.2974 39.1122 50.9079 38.9941Z" fill="#3066BE"/>
<path d="M46.8578 45.527H46.8188C46.4294 45.527 46.0789 45.7238 45.8063 45.9993C45.3779 46.4715 44.9106 46.9044 44.4432 47.298C43.8201 47.8096 43.7422 48.7147 44.2485 49.3444C44.7548 49.9347 45.6895 50.0527 46.2736 49.5411C46.8578 49.0689 47.403 48.5179 47.9093 47.967C48.4545 47.3767 48.4156 46.4322 47.8314 45.9206C47.5588 45.6844 47.2083 45.527 46.8578 45.527Z" fill="#3066BE"/>
<path d="M33.3051 50.4856C32.682 50.4069 32.0589 50.2889 31.4748 50.0921C31.3579 50.0527 31.2022 50.0527 31.0853 50.0527C30.8517 50.0527 30.579 50.1315 30.3843 50.2495C30.0338 50.4463 29.8002 50.7611 29.7223 51.1153C29.5276 51.9024 29.9559 52.6895 30.7348 52.9256C31.4358 53.1224 32.1758 53.2798 32.9546 53.3979C33.7335 53.5159 34.4735 52.9256 34.5903 52.1385C34.6292 51.745 34.5514 51.3514 34.3177 51.076C34.0451 50.7611 33.6946 50.525 33.3051 50.4856Z" fill="#3066BE"/>
<path d="M25.516 46.7862C25.2434 46.5501 24.8929 46.3927 24.5424 46.3927H24.5034C24.114 46.3927 23.7635 46.5895 23.4909 46.8649C23.2183 47.1404 23.1014 47.534 23.1014 47.9275C23.1014 48.321 23.2962 48.6752 23.5688 48.9507C24.114 49.4623 24.6982 49.9346 25.3213 50.3675C25.9444 50.8004 26.879 50.6429 27.3464 50.0133C27.8137 49.3443 27.6579 48.4391 26.9959 47.9669C26.4506 47.6127 25.9833 47.1798 25.516 46.7862Z" fill="#3066BE"/>
<path d="M21.7387 41.0405C21.6219 40.6863 21.3493 40.3714 20.9988 40.214C20.804 40.1353 20.6093 40.0566 20.3757 40.0566C20.2199 40.0566 20.0252 40.096 19.8694 40.1353C19.1294 40.4108 18.74 41.2372 19.0126 42.0243C19.2852 42.7327 19.5578 43.4411 19.9083 44.1101C20.2588 44.8185 21.1545 45.094 21.8555 44.7398C22.5565 44.3856 22.8291 43.4804 22.4786 42.7721C22.206 42.2211 21.9334 41.6308 21.7387 41.0405Z" fill="#3066BE"/>
<path d="M41.211 49.8558C41.0162 49.7771 40.8215 49.6984 40.5879 49.6984C40.4321 49.6984 40.2763 49.7378 40.1205 49.7771C39.5364 49.9739 38.9133 50.1706 38.3291 50.2887C37.9396 50.3674 37.6281 50.6035 37.4334 50.9184C37.2386 51.2332 37.1608 51.6268 37.2386 52.0203C37.3944 52.8074 38.2123 53.319 38.9522 53.1616C39.6921 53.0042 40.4321 52.8074 41.1331 52.5319C41.4836 52.4138 41.7951 52.1384 41.9509 51.7842C42.1067 51.43 42.1456 51.0364 41.9899 50.6823C41.7951 50.3281 41.5615 50.0132 41.211 49.8558Z" fill="#3066BE"/>
<path d="M35.2914 38.4433C36.5819 38.4433 37.6281 37.3861 37.6281 36.082C37.6281 34.7779 36.5819 33.7207 35.2914 33.7207C34.0009 33.7207 32.9548 34.7779 32.9548 36.082C32.9548 37.3861 34.0009 38.4433 35.2914 38.4433Z" fill="#3066BE"/>
<path d="M28.3982 38.4433C29.6887 38.4433 30.7348 37.3861 30.7348 36.082C30.7348 34.7779 29.6887 33.7207 28.3982 33.7207C27.1077 33.7207 26.0615 34.7779 26.0615 36.082C26.0615 37.3861 27.1077 38.4433 28.3982 38.4433Z" fill="#3066BE"/>
<path d="M42.2234 38.4433C43.5139 38.4433 44.5601 37.3861 44.5601 36.082C44.5601 34.7779 43.5139 33.7207 42.2234 33.7207C40.9329 33.7207 39.8868 34.7779 39.8868 36.082C39.8868 37.3861 40.9329 38.4433 42.2234 38.4433Z" fill="#3066BE"/>
</svg>
