<svg width="70" height="70" viewBox="0 0 70 70" fill="none" xmlns="http://www.w3.org/2000/svg">
<rect width="70" height="70" rx="10" fill="#EEF4FF"/>
<path d="M42 49.5H28.5L24 25.5H41L45.5 26.5L44 46.5L42 49.5Z" fill="white"/>
<path d="M30.8846 19C30.4488 19 30.0309 19.1731 29.7228 19.4812C29.4147 19.7894 29.2416 20.2073 29.2416 20.643C29.2416 21.0788 29.4147 21.4967 29.7228 21.8048C30.0309 22.1129 30.4488 22.286 30.8846 22.286H39.8391C40.2748 22.286 40.6927 22.1129 41.0009 21.8048C41.309 21.4967 41.4821 21.0788 41.4821 20.643C41.4821 20.2073 41.309 19.7894 41.0009 19.4812C40.6927 19.1731 40.2748 19 39.8391 19H30.8846Z" fill="#3066BE"/>
<path d="M49.0815 23.7648H21.643C21.2073 23.7648 20.7894 23.9379 20.4812 24.246C20.1731 24.5541 20 24.972 20 25.4078C20 25.8435 20.1731 26.2615 20.4812 26.5696C20.7894 26.8777 21.2073 27.0508 21.643 27.0508H23.286L25.0523 46.6849C25.1555 47.9197 25.7201 49.0704 26.6335 49.9077C27.5469 50.745 28.7422 51.2075 29.9813 51.2032H40.7431C41.9823 51.2075 43.1775 50.745 44.091 49.9077C45.0044 49.0704 45.5689 47.9197 45.6722 46.6849L47.4384 27.0508H49.0815C49.5172 27.0508 49.9351 26.8777 50.2433 26.5696C50.5514 26.2615 50.7245 25.8435 50.7245 25.4078C50.7245 24.972 50.5514 24.5541 50.2433 24.246C49.9351 23.9379 49.5172 23.7648 49.0815 23.7648ZM42.3862 46.3974C42.355 46.8114 42.1683 47.1983 41.8634 47.4803C41.5586 47.7623 41.1584 47.9183 40.7431 47.9172H29.9813C29.5661 47.9183 29.1659 47.7623 28.861 47.4803C28.5562 47.1983 28.3695 46.8114 28.3383 46.3974L26.6132 27.0508H44.1113L42.3862 46.3974Z" fill="#3066BE"/>
</svg>
