<svg id="Layer_1" data-name="Layer 1" xmlns="http://www.w3.org/2000/svg" viewBox="0 0 1752 490.2"><defs><style>.cls-1{fill:#fefefe;}.cls-2{fill:#080708;}.cls-3{fill:#d8d8d8;}.cls-4{fill:#e5e5e5;}.cls-5{fill:#d4d4d4;}.cls-6{fill:#bfbfbf;}.cls-7{fill:#3a74d2;}.cls-8{fill:#3066bc;}</style></defs><title>stable-logo</title><path class="cls-1" d="M94,594.2V104H1846V594.2ZM334.17,267.69l-.33,2-113.91.13c-11.37.82-23,.51-34.06,2.71-19.15,3.81-34.83,14.2-46.84,29.67-10.51,13.54-17.49,29-17.82,46-.72,37.4-.16,74.82-.13,112.23,0,6-.1,12-.09,18,0,7.4,3.11,10.81,10.48,10.81q80.21,0,160.42-.07c1.82.07,3.65.2,5.48.2H504.31c8.7,0,12.7-4,12.7-12.81,0-40.09.09-80.18-.08-120.27,0-5.56-1.28-11.11-2-16.67a81.78,81.78,0,0,0-14.62-34.41c-16.59-22.51-38.59-35-66.75-35.42-26.81-.39-53.62-.1-80.44-.11q-.15-10-.32-19.9l.41-9.2H362c19,.06,38,.45,56.95,0,9.06-.2,16.35-4.36,16.05-16.7-.16-6.48,0-13,0-19.45,0-8.44-6.14-14.61-14.54-14.61-3.49,0-7,.1-10.48.15-22.65,0-45.31-.14-68-.14-4.16,0-8,4.28-8,9C334,221.78,334.11,244.73,334.17,267.69Zm891,234.36c2,.78,3.91,1.57,5.86,2.3,21.77,8.13,44.55,11.37,67.53,12.8,17.39,1.09,34.87.49,51.94-3.84,20.59-5.23,38.24-15.61,51.8-31.86,17.06-20.46,23.91-45.15,25.56-71.13.92-14.32,0-28.8-.87-43.16-1.14-19.72-5.86-38.6-17-55.26-7.42-11.15-17-20-29.68-25.27-16.06-6.69-32.63-8.28-49.8-6a72.92,72.92,0,0,0-31,11.25c-5,3.32-9.55,7.47-14.76,11.61V194.15h-59.59ZM804.37,206.78c-5.34-2.45-10.18-5-15.26-6.95-14.88-5.7-30.4-8.46-46.23-10.12-16.26-1.72-32.42-2.53-48.78-1-14.62,1.33-28.68,4.12-42.18,10-18.1,7.95-32.21,20.26-40.34,38.21-8.8,19.4-10.24,39.87-6.71,61,3.88,23.21,17.2,39.92,35.09,53.56,19.26,14.67,42.2,22.29,64,32.17,13.23,6,26.46,12.07,36.91,22.93,11,11.41,9.16,35.18-4.77,44.87-10.76,7.47-23.11,9.88-35.67,10.81a132,132,0,0,1-45.72-4.7c-12.91-3.64-25.61-8-39-12.3l-20.24,54.17c9.63,3.32,18.76,6.74,28.06,9.61,19.21,5.94,39,8.47,59,9.16,10.06.34,20.18-.36,30.25-.93a131.46,131.46,0,0,0,45.53-10.51c23.7-10.29,39.7-27.39,47.84-51.83,5.41-16.27,5.87-32.89,4-49.82-1.67-15.55-8.37-28.58-18.29-40.19-17.18-20.1-40.5-30.74-63.91-41.4-14.87-6.76-29.64-13.92-43.78-22.06-12-6.91-20.27-17.21-16.93-32.32,1.12-5.06,3.8-10.61,7.5-14.13,9.08-8.65,20.94-11,33.16-11.2a156.56,156.56,0,0,1,19.24,1c8.06.89,16.26,1.58,24,3.7,11.39,3.12,22.44,7.43,33.64,11.23Q794.14,234.51,804.37,206.78Zm379.7,305.43a15,15,0,0,0,0-2.36c-2.31-12-5.58-24-6.71-36.11-1.17-12.54-.52-25.28-.2-37.93.38-15.15,1.89-30.29,1.78-45.44-.14-20.71,2.28-41.6-2.84-62.11-3.4-13.59-9.91-25.1-21.37-33.68-14.54-10.9-31.44-14-48.87-14.79a254.83,254.83,0,0,0-61.72,4.89c-14.83,3-29.34,7-43,13.38l14.13,44.81c11.44-2.81,22.6-5.79,33.87-8.25,16.38-3.59,33-5.75,49.69-2.91,10.31,1.76,17.88,5.8,20.08,17.83,1.29,7,.71,14.42,1.23,21.63.29,4-.89,5.48-5.24,5.48-12.75,0-25.5.47-38.25.9A134,134,0,0,0,1030,387.68c-16.3,6.7-30,17-37.27,33.73a69.63,69.63,0,0,0-3.57,45.28c5.54,22.65,19.14,38.27,41.62,45.63,13.12,4.29,26.46,4.74,40.16,3.15a72.21,72.21,0,0,0,32.67-12.17,74.56,74.56,0,0,0,21.78-22.8c3.54,11.13,6.81,21.41,10.08,31.71ZM1758.8,453l-2,1.15c-.69.39-1.41.75-2.09,1.18a93.07,93.07,0,0,1-48.84,14.94,69.17,69.17,0,0,1-16.22-1.08c-7.31-1.57-15.24-2.85-21.4-6.68-17.44-10.81-21.48-28.77-23.24-48.08h73.43c19.67,0,39.33-.05,59,.07,2.49,0,4.28-.55,4.66-3,1.14-7.38,2.59-14.77,3-22.2.5-10.3.26-20.64.09-31a85.28,85.28,0,0,0-11-40.12c-9.18-16.73-23.08-27.71-41.06-33.57-17.45-5.69-35.27-7-53.64-5.21-16,1.55-31,5.49-45.17,13.15-16.13,8.76-27.87,21.8-36,37.94-8.66,17.13-11.84,35.84-12.94,54.71-1.14,19.67-.06,39.34,4.84,58.6,4.5,17.76,11.94,34.13,24.65,47.5,18.06,19,41.64,25.29,66.78,26.82a166.57,166.57,0,0,0,42.24-2.84c17.34-3.38,33.76-9.16,48.92-18.25,6.68-4,6.67-4.55,3.08-11.52-4.48-8.69-9.09-17.32-13.63-26C1761.06,457.5,1760,455.38,1758.8,453ZM915.06,335.42h54.71V284.48H914.92V225.56c-17.26,4.81-34.13,9.4-50.93,14.25-9,2.6-8.94,2.81-8.94,12.44v32.62h-30.7v50.94h30.7c0,38.66-.19,76.91.14,115.16a156.9,156.9,0,0,0,3,27.64c2,10.65,6.67,20.48,15.3,27.39,11.13,8.92,24.49,12.28,38.54,12.2a244,244,0,0,0,27-2c14-1.65,27.17-6.18,39.73-12.2l-10.84-46.34c-10.91,5-21.15,8.51-32.31,7.66-6.69-.51-12.89-2.95-15.18-9.52-2.58-7.36-5-15.22-5.14-22.91C914.73,400.69,915.06,368.43,915.06,335.42ZM1467.11,194v5.93q0,122,.05,244c0,11.89.2,23.82,1.08,35.67.77,10.4,4.59,20,12.7,26.93,9.43,8.11,21.08,11.06,33.17,11.71,20.71,1.11,40.7-2.61,60.49-10.64-2.15-15.74-4.3-31.45-6.42-47-6.24,1.64-12,3.24-17.7,4.62-9.9,2.39-18.7-2.21-21.14-11.55a63.67,63.67,0,0,1-2.13-15.88q-.2-119.28-.09-238.55V194Z" transform="translate(-94 -104)"/><path class="cls-2" d="M1225.19,502.05V194.15h59.59V303.47c5.21-4.14,9.71-8.29,14.76-11.61a72.92,72.92,0,0,1,31-11.25c17.17-2.26,33.74-.67,49.8,6,12.64,5.26,22.26,14.12,29.68,25.27,11.1,16.66,15.82,35.54,17,55.26.83,14.36,1.79,28.84.87,43.16-1.65,26-8.5,50.67-25.56,71.13-13.56,16.25-31.21,26.63-51.8,31.86-17.07,4.33-34.55,4.93-51.94,3.84-23-1.43-45.76-4.67-67.53-12.8C1229.1,503.62,1227.18,502.83,1225.19,502.05Zm59.9-91.85c0,14.81.25,29.62-.14,44.41-.13,4.67,1.6,6.52,5.66,7.85a80.71,80.71,0,0,0,31.9,3.81c9.77-.77,18.86-3.87,26.24-11,12.73-12.24,15.53-28.32,17.2-44.63.87-8.57,0-17.3.18-25.95a78.43,78.43,0,0,0-5.15-29c-3.92-10.45-10.21-19.37-21.43-23-16.76-5.49-36.43-.7-47,15.09-4.62,6.88-8,14.11-7.59,23C1285.57,383.9,1285.09,397.06,1285.09,410.2Z" transform="translate(-94 -104)"/><path class="cls-2" d="M804.37,206.78q-10.22,27.67-19.56,53c-11.2-3.8-22.25-8.11-33.64-11.23-7.76-2.12-16-2.81-24-3.7a156.56,156.56,0,0,0-19.24-1c-12.22.15-24.08,2.55-33.16,11.2-3.7,3.52-6.38,9.07-7.5,14.13-3.34,15.11,4.94,25.41,16.93,32.32,14.14,8.14,28.91,15.3,43.78,22.06,23.41,10.66,46.73,21.3,63.91,41.4,9.92,11.61,16.62,24.64,18.29,40.19,1.83,16.93,1.37,33.55-4,49.82C798,479.37,782,496.47,758.28,506.76a131.46,131.46,0,0,1-45.53,10.51c-10.07.57-20.19,1.27-30.25.93-20-.69-39.84-3.22-59-9.16-9.3-2.87-18.43-6.29-28.06-9.61l20.24-54.17c13.43,4.26,26.13,8.66,39,12.3a132,132,0,0,0,45.72,4.7c12.56-.93,24.91-3.34,35.67-10.81,13.93-9.69,15.77-33.46,4.77-44.87-10.45-10.86-23.68-16.93-36.91-22.93-21.76-9.88-44.7-17.5-64-32.17-17.89-13.64-31.21-30.35-35.09-53.56-3.53-21.12-2.09-41.59,6.71-61,8.13-18,22.24-30.26,40.34-38.21,13.5-5.92,27.56-8.71,42.18-10,16.36-1.5,32.52-.69,48.78,1,15.83,1.66,31.35,4.42,46.23,10.12C794.19,201.78,799,204.33,804.37,206.78Z" transform="translate(-94 -104)"/><path class="cls-2" d="M1184.07,512.21h-48.63c-3.27-10.3-6.54-20.58-10.08-31.71a74.56,74.56,0,0,1-21.78,22.8,72.21,72.21,0,0,1-32.67,12.17c-13.7,1.59-27,1.14-40.16-3.15-22.48-7.36-36.08-23-41.62-45.63a69.63,69.63,0,0,1,3.57-45.28c7.28-16.7,21-27,37.27-33.73a134,134,0,0,1,46.67-10.13c12.75-.43,25.5-.9,38.25-.9,4.35,0,5.53-1.44,5.24-5.48-.52-7.21.06-14.58-1.23-21.63-2.2-12-9.77-16.07-20.08-17.83-16.71-2.84-33.31-.68-49.69,2.91-11.27,2.46-22.43,5.44-33.87,8.25l-14.13-44.81c13.66-6.39,28.17-10.4,43-13.38a254.83,254.83,0,0,1,61.72-4.89c17.43.77,34.33,3.89,48.87,14.79,11.46,8.58,18,20.09,21.37,33.68,5.12,20.51,2.7,41.4,2.84,62.11.11,15.15-1.4,30.29-1.78,45.44-.32,12.65-1,25.39.2,37.93,1.13,12.14,4.4,24.07,6.71,36.11A15,15,0,0,1,1184.07,512.21Zm-64-98.74c-9.61,0-18.73,0-27.85,0a67.3,67.3,0,0,0-27.7,6.07c-9.53,4.33-16.16,10.17-15.28,21.82,1.14,15.22,9.22,22.59,24.68,23.93,17.16,1.5,31.25-5,42-18.38,1.92-2.39,3.77-5.55,4-8.47C1120.43,430.37,1120.08,422.22,1120.08,413.47Z" transform="translate(-94 -104)"/><path class="cls-2" d="M1758.8,453c1.2,2.34,2.26,4.46,3.37,6.56,4.54,8.67,9.15,17.3,13.63,26,3.59,7,3.6,7.51-3.08,11.52-15.16,9.09-31.58,14.87-48.92,18.25a166.57,166.57,0,0,1-42.24,2.84c-25.14-1.53-48.72-7.82-66.78-26.82-12.71-13.37-20.15-29.74-24.65-47.5-4.9-19.26-6-38.93-4.84-58.6,1.1-18.87,4.28-37.58,12.94-54.71,8.16-16.14,19.9-29.18,36-37.94,14.12-7.66,29.13-11.6,45.17-13.15,18.37-1.78,36.19-.48,53.64,5.21,18,5.86,31.88,16.84,41.06,33.57a85.28,85.28,0,0,1,11,40.12c.17,10.32.41,20.66-.09,31-.37,7.43-1.82,14.82-3,22.2-.38,2.45-2.17,3-4.66,3-19.67-.12-39.33-.07-59-.07H1645c1.76,19.31,5.8,37.27,23.24,48.08,6.16,3.83,14.09,5.11,21.4,6.68a69.17,69.17,0,0,0,16.22,1.08,93.07,93.07,0,0,0,48.84-14.94c.68-.43,1.4-.79,2.09-1.18Zm-111.94-76.77h83.71c-.5-7-.37-13.78-1.6-20.32-1.5-8-4.61-15.35-11-21.13-5.3-4.83-11.67-6.95-18.32-7.85-12.12-1.63-24.19.14-33.81,7.76C1652.91,345,1648.32,359.88,1646.86,376.27Z" transform="translate(-94 -104)"/><path class="cls-3" d="M515,339.61c.68,5.56,1.93,11.11,2,16.67.17,40.09.1,80.18.08,120.27,0,8.81-4,12.81-12.7,12.81H297.37c-1.83,0-3.66-.13-5.48-.2q0-40.81.07-81.63l.07-.06Q358.09,387.23,424.14,367c24.71-7.6,49.37-15.36,74.08-22.94C503.74,342.35,509.38,341.08,515,339.61Z" transform="translate(-94 -104)"/><path class="cls-2" d="M915.06,335.42c0,33-.33,65.27.23,97.52.14,7.69,2.56,15.55,5.14,22.91,2.29,6.57,8.49,9,15.18,9.52,11.16.85,21.4-2.69,32.31-7.66l10.84,46.34c-12.56,6-25.74,10.55-39.73,12.2a244,244,0,0,1-27,2c-14,.08-27.41-3.28-38.54-12.2-8.63-6.91-13.29-16.74-15.3-27.39a156.9,156.9,0,0,1-3-27.64c-.33-38.25-.14-76.5-.14-115.16h-30.7V284.87h30.7V252.25c0-9.63-.06-9.84,8.94-12.44,16.8-4.85,33.67-9.44,50.93-14.25v58.92h54.85v50.94Z" transform="translate(-94 -104)"/><path class="cls-4" d="M515,339.61c-5.59,1.47-11.23,2.74-16.75,4.43-24.71,7.58-49.37,15.34-74.08,22.94q-66,20.29-132.11,40.48c0-17.29.56-34.61-.26-51.86-.47-9.79-1.84-20-5.2-29.09C275.68,297,254.3,278.69,223.41,271.7c-1.24-.28-2.32-1.25-3.48-1.9l113.91-.13q.07,34.36.17,68.74c0,6.59,4,11,9.84,11.14,5.38.11,9.14-4.46,9.15-11.14q.08-34.37.16-68.74c26.82,0,53.63-.28,80.44.11,28.16.4,50.16,12.91,66.75,35.42A81.78,81.78,0,0,1,515,339.61Z" transform="translate(-94 -104)"/><path class="cls-2" d="M1467.11,194h60v5.29q0,119.26.09,238.55a63.67,63.67,0,0,0,2.13,15.88c2.44,9.34,11.24,13.94,21.14,11.55,5.75-1.38,11.46-3,17.7-4.62,2.12,15.54,4.27,31.25,6.42,47-19.79,8-39.78,11.75-60.49,10.64-12.09-.65-23.74-3.6-33.17-11.71-8.11-7-11.93-16.53-12.7-26.93-.88-11.85-1.07-23.78-1.08-35.67q-.14-122-.05-244Z" transform="translate(-94 -104)"/><path class="cls-5" d="M219.93,269.8c1.16.65,2.24,1.62,3.48,1.9,30.89,7,52.27,25.27,63.16,54.81,3.36,9.12,4.73,19.3,5.2,29.09.82,17.25.25,34.57.26,51.86l-.07.05-18.87,6c0-20.47,0-40.93-.18-61.4A61,61,0,0,0,271,339.44c-3.15-13.71-10.59-24.83-20.93-34.24a63,63,0,0,0-39.63-16.4c-20.73-1.25-38.28,6.09-52.57,21.34-11.53,12.3-17.72,26.75-17.85,43.48-.27,33.61-.14,67.23-.17,100.84l-18.8,6c0-37.41-.59-74.83.13-112.23.33-17.06,7.31-32.5,17.82-46,12-15.47,27.69-25.86,46.84-29.67C197,270.31,208.56,270.62,219.93,269.8Z" transform="translate(-94 -104)"/><path class="cls-6" d="M121.08,460.45l18.8-6v15.59H273.09V413.52l18.87-6q0,40.83-.07,81.64-80.22.06-160.42.07c-7.37,0-10.48-3.41-10.48-10.81C121,472.42,121.05,466.43,121.08,460.45Z" transform="translate(-94 -104)"/><path class="cls-7" d="M362,240.57h-8.79l-.41,9.2-18.67,17.92c-.06-23-.15-45.91-.14-68.86,0-4.71,3.83-9,8-9,22.66,0,45.32.09,68,.14q-11.1,11.78-22.22,23.53Q374.93,227.06,362,240.57Z" transform="translate(-94 -104)"/><path class="cls-8" d="M362,240.57q12.87-13.53,25.73-27.06Q398.9,201.77,410,190c3.5,0,7-.16,10.48-.15,8.4,0,14.52,6.17,14.54,14.61,0,6.48-.13,13,0,19.45.3,12.34-7,16.5-16.05,16.7C400,241,381,240.63,362,240.57Z" transform="translate(-94 -104)"/><path class="cls-8" d="M334.17,267.69l18.67-17.92q.17,9.94.32,19.9-.07,34.36-.16,68.74c0,6.68-3.77,11.25-9.15,11.14C338,349.43,334,345,334,338.41q-.12-34.38-.17-68.74Z" transform="translate(-94 -104)"/><path class="cls-1" d="M1285.09,410.2c0-13.14.48-26.3-.16-39.41-.44-8.92,3-16.15,7.59-23,10.6-15.79,30.27-20.58,47-15.09,11.22,3.67,17.51,12.59,21.43,23a78.43,78.43,0,0,1,5.15,29c-.15,8.65.69,17.38-.18,25.95-1.67,16.31-4.47,32.39-17.2,44.63-7.38,7.09-16.47,10.19-26.24,11a80.71,80.71,0,0,1-31.9-3.81c-4.06-1.33-5.79-3.18-5.66-7.85C1285.34,439.82,1285.09,425,1285.09,410.2Z" transform="translate(-94 -104)"/><path class="cls-1" d="M1120.08,413.47c0,8.75.35,16.9-.19,25-.2,2.92-2.05,6.08-4,8.47-10.74,13.38-24.83,19.88-42,18.38-15.46-1.34-23.54-8.71-24.68-23.93-.88-11.65,5.75-17.49,15.28-21.82a67.3,67.3,0,0,1,27.7-6.07C1101.35,413.44,1110.47,413.47,1120.08,413.47Z" transform="translate(-94 -104)"/><path class="cls-1" d="M1646.86,376.27c1.46-16.39,6.05-31.27,19-41.54,9.62-7.62,21.69-9.39,33.81-7.76,6.65.9,13,3,18.32,7.85,6.35,5.78,9.46,13.16,11,21.13,1.23,6.54,1.1,13.34,1.6,20.32Z" transform="translate(-94 -104)"/><path class="cls-1" d="M273.09,413.52v56.53H139.88V454.46c0-33.61-.1-67.23.17-100.84.13-16.73,6.32-31.18,17.85-43.48,14.29-15.25,31.84-22.59,52.57-21.34a63,63,0,0,1,39.63,16.4c10.34,9.41,17.78,20.53,20.93,34.24a61,61,0,0,1,1.88,12.68C273.13,372.59,273.06,393.05,273.09,413.52Z" transform="translate(-94 -104)"/></svg>